<?xml version="1.0" encoding="UTF-8" standalone="no"?>
<svg
   xmlns:dc="http://purl.org/dc/elements/1.1/"
   xmlns:cc="http://creativecommons.org/ns#"
   xmlns:rdf="http://www.w3.org/1999/02/22-rdf-syntax-ns#"
   xmlns:svg="http://www.w3.org/2000/svg"
   xmlns="http://www.w3.org/2000/svg"
   xmlns:sodipodi="http://sodipodi.sourceforge.net/DTD/sodipodi-0.dtd"
   xmlns:inkscape="http://www.inkscape.org/namespaces/inkscape"
   width="100"
   height="100"
   viewBox="0 0 26.458333 26.458334"
   version="1.1"
   id="svg8"
   inkscape:version="1.0.1 (3bc2e813f5, 2020-09-07, custom)"
   sodipodi:docname="cerrado-100px.svg">
  <defs
     id="defs2" />
  <sodipodi:namedview
     id="base"
     pagecolor="#ffffff"
     bordercolor="#666666"
     borderopacity="1.0"
     inkscape:pageopacity="0.0"
     inkscape:pageshadow="2"
     inkscape:zoom="5.6"
     inkscape:cx="13.002238"
     inkscape:cy="27.114071"
     inkscape:document-units="mm"
     inkscape:current-layer="g835"
     inkscape:document-rotation="0"
     showgrid="false"
     units="px"
     inkscape:object-nodes="true"
     inkscape:snap-others="true"
     inkscape:snap-global="true"
     inkscape:window-width="1920"
     inkscape:window-height="1015"
     inkscape:window-x="0"
     inkscape:window-y="0"
     inkscape:window-maximized="1" />
  <metadata
     id="metadata5">
    <rdf:RDF>
      <cc:Work
         rdf:about="">
        <dc:format>image/svg+xml</dc:format>
        <dc:type
           rdf:resource="http://purl.org/dc/dcmitype/StillImage" />
        <dc:title></dc:title>
      </cc:Work>
    </rdf:RDF>
  </metadata>
  <g
     inkscape:label="Layer 1"
     inkscape:groupmode="layer"
     id="layer1">
    <g
       id="g853"
       transform="matrix(0.26458333,0,0,0.26458333,12.901711,-7.4378908)">
      <g
         id="g835">
        <path
           style="opacity:1;fill:#7dac42;fill-opacity:1;stroke:none;stroke-width:0.2;stroke-miterlimit:4;stroke-dasharray:none;stroke-opacity:1"
           d="m -4.521561,30.059152 c -1.863762,0.04622 -3.645258,0.166149 -5.076172,0.24414 -5.723654,0.311967 -16.595435,0.578309 -15.845703,6.060547 0.749732,5.482238 10.656159,1.777618 16.162109,1.515625 0.04132,-0.002 0.08895,-3.28e-4 0.13086,-0.002 l 3.152343,1.390625 c 4.4531,3.788072 4.473116,7.575209 4.671875,11.363281 -0.02168,2.650154 -0.05401,4.892387 0.251953,7.197266 -5.564543,-0.125553 -10.7072,-1.303488 -14.267578,-6.439453 l -0.210937,-1.892578 c 5.053219,-0.141995 9.111535,0.398476 9.886718,-2.117188 0.824998,-2.677322 -5.450173,-5.741654 -11.173828,-5.429687 -5.723654,0.311967 -15.335273,1.083871 -13.070312,5.429687 2.020444,3.876657 6.707164,2.758788 11.603516,2.285156 l 1.574218,3.240235 c 4.251379,5.617932 9.986413,6.413932 15.53125,7.828125 0.65086401,5.727422 0.71681801,11.537853 -3.283203,17.929687 -4.239141,-1.936126 -8.490456,-3.870514 -10.101562,-5.80664 l 2.15039,-1.007813 c 4.182847,-0.01343 8.019933,-0.444097 8.158203,-4.519531 0.193652,-5.70778 -7.975563,-5.866655 -13.699218,-5.554688 -5.723654,0.311967 -14.323951,1.715028 -13.574219,7.197266 0.608113,4.446681 5.904294,3.763817 10.824219,3.207031 l 2.480468,1.181641 c 2.934293,1.752577 5.788184,3.671063 8.964844,4.925781 1.802039,2.567471 2.430104,5.133701 2.904297,7.701172 0.636707,3.35685 0.997606,7.633582 1.373047,11.869141 0.898929,39.57296 8.984466,31.82045 4.47265601,4.6e-5 C -1.728773,94.0103 -2.603026,90.100111 -2.462967,85.986885 8.735421,80.313099 8.316278,79.372908 11.046798,77.148994 c 0.315663,-1.735272 0.680695,-3.458501 1.189453,-5.146484 0.01082,-5.18e-4 0.0165,-0.0014 0.02734,-0.002 5.50595,-0.261993 8.852525,0.133293 9.21875,-2.271484 0.44619,-2.929862 -3.809548,-3.216264 -9.533203,-2.904297 -5.723654,0.311967 -7.386719,3.535156 -7.386719,3.535156 0.336503,2.224251 2.019439,1.975053 6.41211,1.714844 -0.104582,1.27021 -0.35567,2.540336 -1.441407,3.810547 C 6.23832,79.137515 3.079929,81.010019 -1.959065,81.441916 0.37537001,78.29478 0.84079001,75.796024 0.82023201,65.783713 8.507505,63.580742 13.42354,60.684818 18.497966,57.828635 c 0.329267,-3.091857 1.042815,-4.839253 1.806641,-6.410156 0.0126,-5.77e-4 0.02846,5.97e-4 0.04102,0 5.50595,-0.261993 14.452833,4.698014 14.646485,-1.009766 0.193652,-5.70778 -10.122048,-6.624467 -15.845704,-6.3125 -5.723654,0.311967 -13.444328,1.143176 -13.826171,3.15625 -0.454131,2.394179 7.344612,4.014106 12.96289,4.173828 l -1.300782,4.634814 C 11.721134,59.347689 6.460353,61.877657 1.199142,61.490792 1.402845,57.991998 0.00509701,53.412123 1.072189,48.23298 -0.21704499,44.325088 -1.72241,41.495587 -3.347733,39.268136 l 1.134766,-1.035156 c 4.729923,0.304611 9.346883,0.195355 9.472656,-3.511719 0.145239,-4.280835 -6.189965,-4.800779 -11.78125,-4.662109 z"
           id="path833"
           sodipodi:nodetypes="ssscccccccsssccccccsssccccccccccssccccccccsssccccccss" />
      </g>
    </g>
  </g>
</svg>
